<?xml version="1.0" standalone="no"?><!DOCTYPE svg PUBLIC "-//W3C//DTD SVG 1.1//EN" "http://www.w3.org/Graphics/SVG/1.1/DTD/svg11.dtd"><svg t="1579676044878" class="icon" viewBox="0 0 1024 1024" version="1.1" xmlns="http://www.w3.org/2000/svg" p-id="4997" xmlns:xlink="http://www.w3.org/1999/xlink" width="200" height="200"><defs><style type="text/css"></style></defs><path d="M971.5 515.3c0-62-12.2-122.2-36.1-178.9-23.1-54.7-56.3-103.9-98.5-146.1S745.5 115.1 690.8 92C634.2 68 574 55.8 512 55.8c-62 0-122.2 12.2-178.9 36.1-54.7 23.1-103.9 56.3-146.1 98.5-42.2 42.2-75.3 91.3-98.5 146.1-24 56.7-36.1 116.8-36.1 178.9 0 62 12.2 122.2 36.1 178.9 17.3 41 40.3 78.9 68.4 113v1.4h1.2c9.1 10.9 18.7 21.5 28.9 31.7 42.2 42.2 91.3 75.3 146.1 98.5 56.7 24 116.8 36.1 178.9 36.1 62 0 122.2-12.2 178.9-36.1 54.7-23.1 103.9-56.3 146.1-98.5 10.2-10.2 19.8-20.7 28.9-31.7h1.3v-1.5c28.1-34.1 51-72 68.4-112.9 23.7-56.8 35.9-116.9 35.9-179zM675.2 901.9c-51.7 21.9-106.6 33-163.3 33s-111.6-11.1-163.3-33c-50-21.1-94.8-51.4-133.3-89.9-6.2-6.2-12.2-12.6-18-19.2 1.7-41.3 9.9-80.5 24.5-116.6 15.7-38.7 38.4-73 67.4-101.9 57.9-57.6 137-89.3 222.8-89.3 85.8 0 164.9 31.7 222.8 89.3 29 28.9 51.7 63.1 67.4 101.9 14.6 36.1 22.8 75.2 24.5 116.5-5.8 6.6-11.8 13-18.1 19.3-38.5 38.5-83.4 68.8-133.4 89.9zM405.4 315.7c0-58.8 47.8-106.6 106.6-106.6s106.6 47.8 106.6 106.6S570.8 422.3 512 422.3s-106.6-47.8-106.6-106.6z m493.1 362.9c-10 23.7-22.1 46.2-36.2 67.5-4.5-29.6-12.2-58-23.1-85-17.7-43.8-43.4-82.5-76.2-115.2-51.7-51.5-118.2-84.6-191.5-96.3 51.3-22.9 87.1-74.3 87.1-134 0-80.9-65.8-146.6-146.6-146.6-80.9 0-146.6 65.8-146.6 146.6 0 59.7 35.8 111.1 87.1 134-73.3 11.7-139.8 44.9-191.5 96.4-32.8 32.7-58.5 71.4-76.2 115.2-10.9 27-18.7 55.4-23.1 85.1-14.1-21.3-26.2-43.9-36.2-67.6-21.9-51.7-33-106.6-33-163.3s11.1-111.6 33-163.3c21.1-50 51.4-94.8 89.9-133.3s83.4-68.8 133.3-89.9c51.7-21.9 106.6-33 163.3-33s111.6 11.1 163.3 33c50 21.1 94.8 51.4 133.3 89.9 38.5 38.5 68.8 83.4 89.9 133.3 21.9 51.7 33 106.6 33 163.3s-11.1 111.5-33 163.2z" fill="#515151" p-id="4998"></path></svg>